<?xml version="1.0" encoding="utf-8"?>
<!-- Generator: Adobe Illustrator 19.2.1, SVG Export Plug-In . SVG Version: 6.00 Build 0)  -->
<svg version="1.1" id="Layer_1" xmlns="http://www.w3.org/2000/svg" xmlns:xlink="http://www.w3.org/1999/xlink" x="0px" y="0px"
	 viewBox="0 0 849.6 560.8" style="enable-background:new 0 0 849.6 560.8;" xml:space="preserve">
<style type="text/css">
	.st0{opacity:0.2;fill:none;stroke:#F0E5D1;stroke-miterlimit:10;}
	.st1{opacity:0.2;fill:none;stroke:#F0E5D1;stroke-width:1.5;stroke-miterlimit:10;}
	.st2{opacity:0.2;fill:none;stroke:#F0E5D1;stroke-width:2;stroke-miterlimit:10;}
	.st3{opacity:0.2;}
	.st4{fill:none;stroke:#F0E5D1;stroke-miterlimit:10;}
	.st5{fill:none;stroke:#F0E5D1;stroke-width:1.1113;stroke-miterlimit:10;}
	.st6{fill:none;stroke:#F0E5D1;stroke-width:1.4206;stroke-miterlimit:10;}
	.st7{fill:none;stroke:#F0E5D1;stroke-width:1.51;stroke-miterlimit:10;}
</style>
<path class="st0" d="M327.3,258.9c2.1-0.6,4.3-1.1,6.6-1.2c8.8-0.1,16.1,7.2,19.7,15.2c1.6,3.5,2.8,7.3,2.8,11.1
	c0,6-3,11.8-7.8,15.3s-11.4,4.4-17,2.4s-9.9-6.8-12.3-12.2C314.6,279.2,314.3,262.7,327.3,258.9z"/>
<path class="st0" d="M318.2,251.4c1.7-1,3.3-2.1,5.3-2.5c1.9-0.4,3.8-0.1,5.6,0.5c1.8,0.5,3.3,1.5,5.1,2.1c4,1.3,8.2,2.5,12,4.6
	c6.3,3.5,12.1,8.3,16.5,13.7c3.1,3.8,5.5,8,7,12.5c0.5,1.7,1.1,3.4,1.1,5.3c0,2.9-1,5.8-2.5,8.3c-2.2,3.9-5.5,7-9.3,9.4
	c-4.3,2.6-9.3,4.2-14.3,4.7c-3.1,0.3-6.3,0.2-9.4-0.4c-0.3-0.1-0.6-0.1-0.9-0.2c-2.5-0.6-4.9-1.6-7.2-2.8c-3-1.6-5.8-3.7-8-6.4
	c-1.6-1.8-2.9-3.9-4-6.1c-1.6-3-3-6.2-4.2-9.5c-0.7-2-1.5-3.9-2-5.9c-1.4-5.9-1.3-12.1,0.5-17.4c0.6-1.8,1.5-3.6,2.8-5.1
	C313.5,254.2,315.8,252.8,318.2,251.4z"/>
<path class="st0" d="M309.1,244c2.5-1.8,5.2-3.8,8.3-4.4c3.1-0.5,6.2,0.2,9,1.3c2.8,1.2,5.2,3.1,7.9,4.3c4.8,2.2,9.9,4,14.7,6.6
	c8.1,4.3,16,9.1,22.4,14.8c4.6,4,8.4,8.6,11.2,13.9c1.1,2.1,2.2,4.4,2.5,6.9c0.4,3.9-1,7.9-3,11.3c-3.1,5.2-7.8,9.3-13.1,12.3
	c-5.7,3.2-12.2,5.1-18.8,5.9c-4.1,0.5-8.2,0.6-12.2,0c-0.4-0.1-0.8-0.1-1.3-0.2c-3.3-0.6-6.6-1.7-9.6-3c-4.1-1.8-7.9-4.3-11-7.5
	c-2.2-2.3-3.9-5-5.6-7.7c-2.2-3.7-4.2-7.7-6.1-11.7c-1.2-2.4-2.5-4.6-3.4-7.2c-2.5-7.2-3.2-15-1.8-22c0.5-2.4,1.3-4.8,2.6-6.9
	C303.5,248.1,306.3,246.1,309.1,244z"/>
<path class="st0" d="M300.1,236.7c3.4-2.7,7-5.5,11.4-6.3c4.2-0.7,8.6,0.4,12.4,2.2s7.1,4.6,10.8,6.6c5.6,3,11.6,5.6,17.5,8.5
	c9.9,5,19.9,9.9,28.4,15.9c6,4.3,11.3,9.3,15.4,15.3c1.8,2.6,3.4,5.4,4,8.6c0.8,4.9-0.9,10.1-3.6,14.4c-4,6.6-10.1,11.7-16.9,15.3
	c-7.2,3.8-15.2,6-23.3,7.1c-5,0.7-10.1,1-15.1,0.5c-0.5-0.1-1-0.1-1.6-0.2c-4.1-0.6-8.2-1.7-12-3.3c-5.1-2-10.1-4.8-14-8.7
	c-2.8-2.8-5-6-7.1-9.4c-2.8-4.5-5.4-9.2-8-13.9c-1.6-2.9-3.5-5.4-4.8-8.4c-3.7-8.5-5.1-17.9-4.1-26.6c0.3-3,1-6,2.5-8.7
	C293.7,242.1,296.9,239.3,300.1,236.7z"/>
<path class="st0" d="M291.3,229.3c4.2-3.6,8.9-7.2,14.5-8.2c5.4-0.9,11,0.6,15.8,3.1s9,6,13.6,8.8c6.4,3.8,13.4,7.1,20.3,10.5
	c11.6,5.7,23.7,10.7,34.3,17.1c7.5,4.5,14.2,9.9,19.6,16.7c2.4,3,4.6,6.3,5.4,10.2c1.2,5.9-0.9,12.2-4.2,17.4
	c-4.9,7.9-12.4,14-20.7,18.3c-8.6,4.4-18.1,6.9-27.7,8.4c-6,0.9-12,1.4-18,0.9c-0.6-0.1-1.2-0.1-1.9-0.2c-4.9-0.6-9.8-1.8-14.5-3.5
	c-6.2-2.2-12.2-5.3-17-9.9c-3.4-3.2-6-7.1-8.6-11c-3.4-5.3-6.7-10.7-9.9-16.1c-2-3.3-4.4-6.2-6.1-9.7c-4.8-9.8-7-20.8-6.4-31.3
	c0.2-3.6,0.8-7.2,2.3-10.5C284,236,287.6,232.5,291.3,229.3z"/>
<path class="st1" d="M282.5,222c5.1-4.6,10.8-9,17.5-10.1c6.6-1.1,13.4,0.9,19.2,4c5.9,3.1,10.9,7.5,16.5,11
	c7.2,4.6,15.1,8.6,23,12.4c13.4,6.4,27.6,11.5,40.2,18.2c9,4.8,17.1,10.5,23.8,18.1c3,3.4,5.8,7.3,6.8,11.9
	c1.6,6.9-0.9,14.4-4.7,20.4c-5.8,9.3-14.7,16.3-24.5,21.2c-10,5-21.1,7.9-32.2,9.6c-6.9,1.1-13.9,1.8-20.8,1.3
	c-0.7,0-1.4-0.1-2.2-0.2c-5.8-0.6-11.4-1.9-16.9-3.7c-7.3-2.4-14.4-5.8-20-11.1c-3.9-3.7-7.1-8.2-10.1-12.6
	c-4.1-6-7.9-12.2-11.9-18.3c-2.5-3.8-5.4-7-7.5-10.9c-5.9-11.1-8.9-23.7-8.7-35.9c0-4.2,0.5-8.4,2.1-12.3
	C274.3,229.9,278.3,225.8,282.5,222z"/>
<path class="st2" d="M273.8,214.6c5.9-5.5,12.6-10.7,20.6-12c7.8-1.3,15.8,1.1,22.6,4.8c6.9,3.7,12.8,8.9,19.3,13.3
	c8.1,5.4,16.8,10.2,25.8,14.4c15.2,7.1,31.5,12.3,46.2,19.3c10.4,5,20.1,11.1,28,19.5c3.6,3.9,7,8.3,8.3,13.5
	c2,7.9-0.9,16.5-5.3,23.5c-6.7,10.6-17,18.7-28.3,24.2c-11.5,5.7-24,8.8-36.7,10.9c-7.8,1.3-15.8,2.2-23.7,1.8
	c-0.8,0-1.6-0.1-2.5-0.2c-6.6-0.6-13-2-19.3-3.9c-8.3-2.6-16.5-6.3-23-12.2c-4.5-4.1-8.1-9.2-11.6-14.3c-4.7-6.8-9.1-13.8-13.8-20.6
	c-2.9-4.2-6.4-7.7-8.9-12.2c-7-12.4-10.7-26.6-11-40.6c-0.1-4.8,0.3-9.6,2-14.1C264.7,223.8,269.1,219,273.8,214.6z"/>
<path class="st2" d="M265,207.2c6.7-6.4,14.5-12.4,23.7-13.9c9-1.5,18.1,1.3,26.1,5.7c7.9,4.4,14.8,10.4,22.2,15.5
	c8.9,6.2,18.6,11.7,28.6,16.3c16.9,7.8,35.3,13.1,52.1,20.5c11.9,5.2,23,11.7,32.2,20.9c4.3,4.3,8.2,9.2,9.7,15.1
	c2.4,9-0.8,18.7-5.9,26.5c-7.6,12-19.3,21-32.1,27.2c-12.9,6.3-27,9.7-41.1,12.1c-8.8,1.5-17.7,2.6-26.6,2.2c-0.9,0-1.8-0.1-2.8-0.2
	c-7.4-0.5-14.7-2.1-21.7-4.2c-9.4-2.8-18.6-6.9-26-13.4c-5.1-4.6-9.2-10.3-13.1-15.9c-5.3-7.5-10.4-15.3-15.7-22.8
	c-3.3-4.6-7.4-8.5-10.3-13.4c-8.1-13.7-12.6-29.5-13.3-45.2c-0.3-5.4,0-10.8,1.8-15.9C255.1,217.7,259.9,212.2,265,207.2z"/>
<path class="st0" d="M256.3,199.8c7.5-7.4,16.4-14.1,26.8-15.8c10.1-1.7,20.5,1.6,29.5,6.6c8.9,5,16.7,11.8,25.1,17.8
	c9.8,7,20.3,13.2,31.3,18.3c18.7,8.6,39.2,13.9,58,21.6c13.4,5.5,25.9,12.3,36.4,22.3c4.9,4.7,9.3,10.2,11.2,16.8
	c2.8,10-0.8,20.8-6.4,29.6c-8.5,13.3-21.6,23.3-35.8,30.1c-14.3,6.9-29.9,10.7-45.6,13.3c-9.7,1.7-19.6,2.9-29.5,2.6
	c-1,0-2-0.1-3.1-0.2c-8.2-0.5-16.3-2.1-24.2-4.4c-10.5-3-20.8-7.4-29-14.6c-5.7-5-10.2-11.3-14.6-17.5c-5.9-8.3-11.6-16.8-17.6-25
	c-3.7-5.1-8.4-9.3-11.7-14.7c-9.3-15-14.5-32.4-15.6-49.9c-0.4-6-0.2-12,1.6-17.7C245.5,211.6,250.7,205.3,256.3,199.8z"/>
<path class="st0" d="M231.9,233.3c-0.5-6.5-0.5-13.3,1.5-19.5c2.5-8.3,8.2-15.2,14.3-21.3c8.3-8.3,18.2-15.8,29.8-17.7
	c11.3-1.9,22.9,1.8,32.9,7.5s18.7,13.2,27.9,20c10.7,7.9,22,14.7,34.1,20.2c35,15.9,76.3,20.4,104.5,46.4
	c5.5,5.1,10.5,11.2,12.6,18.4c3.2,11-0.8,23-7,32.6c-9.4,14.7-23.9,25.6-39.6,33.1c-15.8,7.5-32.9,11.6-50.1,14.6
	c-10.7,1.9-21.5,3.3-32.3,3.1c-10.1-0.3-20.2-2-29.9-4.8c-11.5-3.2-22.9-7.9-32-15.8c-6.3-5.5-11.3-12.4-16.2-19.2
	c-6.5-9.1-12.8-18.3-19.5-27.2c-4.2-5.5-9.3-10.1-13.1-15.9C239.5,271.5,233.6,252.4,231.9,233.3z"/>
<g class="st3">
	<path class="st4" d="M4.9,117.2c14.4-0.3,28.4-4.6,41.8-9.8c26.6-10.3,51.7-24.5,74.2-42c18.2-14.2,34.7-30.5,53.8-43.4
		c5.1-3.5,10.6-6.9,14-12.1c6.5-10.2,2.6-24.5-6.1-32.9c-8.7-8.4-20.9-12-32.8-14c-29.4-5-59.6-2-89,3C29-28.6-4.5-19.7-25.9,4.4
		c-17,19.3-22.8,47.1-17,72c2,8.7,5.6,22.2,11.3,29.4C-23.8,115.6-6.5,117.5,4.9,117.2z"/>
	<path class="st4" d="M-22.8,4.5c14.1-16.1,34.1-25,55.2-30.5c7.4-1.9,14.9-3.4,22.3-4.6c25.6-4.3,51.9-6.8,77.5-2.3
		c10.4,1.8,21,4.9,28.6,12.2c8.3,7.6,12.1,20.4,6.8,29.7c-2.8,4.8-7.4,8.1-11.8,11.5c-16.4,12-31,26.9-47.3,39.9
		c-2.7,2.2-5.5,4.3-8.4,6.3c-18,12.9-37.9,23.4-58.7,31c-1.7,0.6-3.4,1.2-5.1,1.8c-10.6,3.5-21.5,6.1-32.5,6
		c-10.2-0.1-25.3-2.2-32.1-11.3c-4.9-6.5-8-18.3-9.7-26.1C-42.9,46.1-37.7,21.6-22.8,4.5z"/>
	<path class="st4" d="M-19.7,4.6C-7.4-9.8,10.2-18,28.8-23.1c6.5-1.8,13.2-3.2,19.7-4.2c21.8-3.6,44.2-5.5,66-1.6
		c8.8,1.6,17.8,4.3,24.4,10.4c7.8,6.7,11.7,18,7.5,26.6c-2.1,4.4-5.9,7.6-9.6,10.9c-13.7,11.1-26.4,24.7-40.9,36.4
		c-2.4,1.9-4.9,3.8-7.4,5.7C72.7,72.6,54.7,81.7,36,87.9c-1.5,0.5-3,1-4.5,1.5c-9.5,2.9-19.2,4.8-28.9,4.4c-9-0.5-22-2.8-27.7-11.1
		c-4.1-5.7-6.7-15.9-8.1-22.7C-37.1,40.8-32.5,19.6-19.7,4.6z"/>
	<path class="st4" d="M-16.6,4.7C-6.1-8,9-15.6,25.1-20.2c5.6-1.6,11.4-2.9,17.2-3.7c18.1-2.9,36.5-4.3,54.5-0.9
		c7.3,1.3,14.7,3.6,20.1,8.6c7.4,5.9,11.2,15.7,8.2,23.4c-1.5,4-4.4,7.1-7.4,10.3c-11,10.2-21.8,22.4-34.4,32.9
		c-2.1,1.7-4.2,3.4-6.4,5C63.3,65.5,47.2,73.3,30.7,78.2c-1.3,0.4-2.7,0.8-4,1.1C18.3,81.5,9.8,82.8,1.4,82
		c-7.8-0.8-18.6-3.4-23.3-11c-3.3-5-5.4-13.5-6.4-19.4C-31.4,35.4-27.4,17.5-16.6,4.7z"/>
	<path class="st4" d="M-13.5,4.8c8.8-11,21.4-17.9,35-22.1c4.8-1.5,9.7-2.6,14.6-3.3c14.3-2.2,28.8-3,43-0.2
		c5.7,1.1,11.6,2.9,15.9,6.8c7,5.1,10.7,13.4,9,20.2c-0.9,3.7-3,6.7-5.2,9.7c-8.3,9.3-17.2,20.2-28,29.5c-1.8,1.5-3.6,3-5.5,4.4
		c-11.4,8.6-25.7,15.1-40,18.6c-1.2,0.3-2.3,0.6-3.5,0.8c-7.3,1.6-14.6,2.2-21.6,1.1c-6.7-1.2-15.3-4-18.9-10.8
		c-2.5-4.2-4.1-11.1-4.8-16C-25.6,30-22.2,15.5-13.5,4.8z"/>
	<path class="st4" d="M-10.4,4.9c7-9.3,17.1-15.6,28.3-19.3c3.9-1.3,8-2.3,12.1-2.8c10.5-1.5,21.1-1.8,31.5,0.4
		c4.2,0.9,8.4,2.3,11.7,5c6.6,4.3,10.2,11,9.7,17.1c-0.2,3.3-1.5,6.2-3,9.2c-5.6,8.4-12.6,17.9-21.5,26c-1.5,1.3-3,2.6-4.5,3.8
		C44.5,51.4,32.2,56.5,20,58.7c-1,0.2-1.9,0.3-2.9,0.5C10.9,60,4.7,60-0.9,58.5c-5.5-1.6-11.9-4.6-14.4-10.7
		c-1.8-3.5-2.8-8.8-3.2-12.7C-19.8,24.7-17,13.4-10.4,4.9z"/>
	<path class="st4" d="M-7.3,5C-2.1-2.6,5.6-8.2,14.3-11.5c3.1-1.2,6.3-2.1,9.5-2.4c6.7-0.8,13.4-0.5,20,1.1c2.6,0.7,5.3,1.6,7.5,3.2
		c6.1,3.4,9.8,8.7,10.4,13.9c0.4,2.9,0,5.7-0.8,8.6c-2.9,7.4-8,15.7-15.1,22.5c-1.1,1.1-2.3,2.1-3.6,3.1C35,44.3,24.6,48,14.6,48.9
		C13.8,49,13,49,12.2,49.1c-5.1,0.2-10-0.4-14.3-2.3c-4.3-2-8.6-5.2-10-10.5c-1-2.7-1.5-6.4-1.6-9.3C-14,19.3-11.8,11.3-7.3,5z"/>
	<path class="st4" d="M-8.8,24.7C-9.4,17.9-7.7,11-4.2,5.1S4.4-5.8,10.7-8.6c2.2-1,4.6-1.8,7-1.9c4.1-0.2,8,1.6,11.7,3.2
		c9,4.1,12.8,11.2,12.5,18.7C41.7,19,37.6,27,30.7,32.9C25.3,37.6,15.8,40,7.5,39S-8.1,33.6-8.8,24.7z"/>
</g>
<g class="st3">
	<path class="st4" d="M467.1-37.4c12.2-2.2,24.8-2.6,37-0.3c12.2,2.3,23.8,7.1,34.8,12.9c13.2,6.9,26,15.3,34.6,27.4
		c11.1,15.6,13.9,35.5,14.8,54.7c0.6,13.3,0.4,27-4.8,39.3c-5.7,13.3-16.8,23.7-28.9,31.7c-18.1,12-39.4,19.7-61.1,19
		c-21.6-0.8-41.7-9.9-59.5-21.6c-14.5-9.5-33.8-21.5-41.2-37.9c-5.6-12.3-1.6-25.7,0.5-38.3C396.8,28.9,397.8,9,412-7.7
		C425.8-24.1,446.4-33.7,467.1-37.4z"/>
	<path class="st4" d="M475.7-29.9c10.6-1.9,21.6-2.2,32.2-0.2c10.6,2,20.7,6.1,30.3,11.1c11.5,6,22.6,13.2,30.1,23.7
		c7.8,10.7,11.2,23.7,12.7,37c0.4,3.9,0.7,7.8,0.9,11.7c0.6,11.9,0.4,24.1-4.1,35.2c-5,11.9-14.7,21.3-25.4,28.6
		c-15.9,10.8-34.6,17.7-53.8,17.4c-19.1-0.5-36.9-8.2-52.7-18.3c-13.5-8.4-30.6-19.1-37.3-33.8c-5.1-11-1.7-23.1,0.2-34.5
		c3.1-18.5,4.4-36.4,17.3-51.3C438.5-18.1,457-26.8,475.7-29.9z"/>
	<path class="st4" d="M484.3-22.4c9-1.6,18.3-1.8,27.3-0.2c9,1.7,17.6,5.2,25.7,9.4c9.8,5,19.2,11.2,25.7,20
		c7,9.2,10.1,20.7,11.6,32.4c0.4,3.4,0.7,6.9,0.9,10.3c0.6,10.5,0.4,21.3-3.5,31c-4.3,10.5-12.6,19-21.9,25.6
		c-13.6,9.5-29.9,15.8-46.5,15.7c-16.5-0.1-32.1-6.5-46-15.1C445.2,99.5,430.2,90,424.2,77c-4.5-9.8-1.8-20.5-0.1-30.7
		c2.8-16.4,4.4-32.3,15.8-45.5C451.1-12.1,467.6-19.8,484.3-22.4z"/>
	<path class="st4" d="M492.9-14.9c7.4-1.3,15.1-1.5,22.5-0.1s14.5,4.2,21.2,7.6c8,4.1,15.8,9.1,21.2,16.3
		c6.2,7.8,9.1,17.7,10.5,27.8c0.4,3,0.7,5.9,0.9,8.9c0.6,9.1,0.4,18.4-2.8,26.9c-3.6,9.2-10.6,16.6-18.4,22.5
		c-11.4,8.3-25.1,13.8-39.1,14.1c-14,0.2-27.3-4.8-39.2-11.8c-11.4-6.1-24.3-14.4-29.5-25.6c-4-8.5-1.9-17.9-0.4-26.9
		c2.4-14.3,4.3-28.2,14.4-39.6C463.8-6.1,478.2-12.9,492.9-14.9z"/>
	<path class="st4" d="M501.6-7.5c5.8-0.9,11.8-1.1,17.6,0s11.4,3.2,16.6,5.9c6.3,3.2,12.4,7,16.7,12.6c5.5,6.4,8.1,14.8,9.4,23.3
		c0.4,2.5,0.6,5,0.8,7.5c0.6,7.6,0.4,15.5-2.2,22.7c-2.9,7.8-8.5,14.3-14.9,19.4c-9.2,7.1-20.3,11.9-31.8,12.5
		c-11.4,0.5-22.5-3.1-32.4-8.6c-10.3-4.9-21.2-12-25.7-21.6c-3.5-7.3-2-15.3-0.7-23c2-12.2,4.2-24.1,13-33.8
		C476.5-0.1,488.8-5.9,501.6-7.5z"/>
	<path class="st4" d="M510.2,0c4.2-0.6,8.6-0.7,12.8,0s8.3,2.3,12.1,4.1c4.6,2.2,9.1,5,12.2,8.9c4.7,5,7.1,11.8,8.2,18.7
		c0.3,2,0.6,4.1,0.8,6.1c0.5,6.2,0.4,12.7-1.5,18.6c-2.2,6.4-6.4,11.9-11.5,16.3c-7,5.8-15.5,9.9-24.5,10.8
		c-8.9,0.9-17.7-1.4-25.7-5.3c-9.3-3.8-18-9.7-21.8-17.5c-2.9-6-2.1-12.7-1.1-19.2c1.6-10,4.2-20,11.6-27.9
		C489.1,5.9,499.4,1,510.2,0z"/>
	<path class="st4" d="M518.8,7.5c2.6-0.3,5.3-0.3,7.9,0.1c2.6,0.4,5.1,1.3,7.6,2.4c2.9,1.3,5.7,2.9,7.8,5.2c3.9,3.6,6,8.8,7.1,14.1
		c0.3,1.6,0.6,3.1,0.7,4.7c0.5,4.8,0.4,9.8-0.9,14.4c-1.5,5-4.3,9.5-8,13.3c-4.7,4.6-10.8,8-17.2,9.2c-6.4,1.2-12.9,0.4-18.9-2
		c-8.2-2.6-14.8-7.3-17.9-13.4c-2.4-4.7-2.2-10.1-1.4-15.4c1.3-7.9,4.1-15.8,10.1-22C501.8,11.9,510,8,518.8,7.5z"/>
	<path class="st4" d="M516.8,59.4c8.2,1.7,17-2.1,22-8.8s6.2-15.8,4-23.8c-1-3.7-2.9-7.3-6-9.5c-2.7-1.8-6.1-2.3-9.4-2.3
		C502.9,14.8,487.6,53.4,516.8,59.4z"/>
</g>
<g class="st3">
	<path class="st5" d="M429.9,203.2c-7.9-10.9-9.1-27.9,1-36.7c3.7-3.1,8.3-4.9,13.1-6c9.8-2.2,20-1.9,29.6,1.1
		c17.6,5.4,94.1-3.9,105.4-14.4c24.7-22.7,29.5-37.7,40-69.4c5.1-15.4,10.2-33.7,25.4-39.5c14.9-5.6,30.7,4.2,42.9,14.2
		c9.6,7.9,19,16.7,24.1,28c9.8,21.9,83.6,160.6,87.1,179.2c3.4,18.7-1.4,39.2-14.7,52.9c-7.7,7.9-17.4,13.1-27.4,17.8
		c-23.6,11.1-49.9,19.6-75.3,14.1c-24.8-5.3-40.7,0.2-56.7-19.4c-6.8-8.2-32.6-11.8-40.5-18.9c-11.2-10-25.8-16.4-40.8-17.9
		c-20.9-2.1-27.2-23.7-47.1-30.3c-15.3-5-22.1-17-32.4-28.1C453.5,219.5,438.7,215.2,429.9,203.2z"/>
	<path class="st5" d="M626.9,99.1c4.8-12.9,9.7-28.3,23.4-33.2c13.3-4.7,27.4,3.7,38.4,12.3c2.9,2.2,5.7,4.6,8.4,7
		c5.5,5,10.4,10.6,13.6,17.1c4.8,8.5,20.6,37.3,37,68.2c20.1,38.1,41,79.6,42.4,89.7c2.8,16.7-1.8,34.8-13.6,47
		c-6.8,7-15.4,11.7-24.2,15.9c-20.8,10-44,17.6-66.5,13.2c-21.8-4.4-36,0.6-50.3-16.2c-6.2-7-28.8-10-36-16.1
		c-10.5-8.6-23.9-14.3-37.6-15.9c-19-2.2-25.3-21.4-43.1-27.9c-11.6-4.2-17.9-12.8-25.3-21.5c-1.3-1.6-2.7-3.2-4.2-4.7
		c-9.3-9.7-22.6-14-30.6-25c-7.1-9.8-8.3-24.9,0.3-32.9c3.1-2.9,7.1-4.6,11.2-5.7c6.2-1.7,12.7-2.2,19-1.4c2.3,0.3,4.5,0.7,6.7,1.3
		c7.5,1.7,26.5,0.7,45.5-1.7c21.4-2.7,42.9-7.3,48.7-12c2.5-2.2,4.8-4.2,6.9-6.2C614.1,134.5,618.1,122.6,626.9,99.1z"/>
	<path class="st5" d="M634.8,120.4c4.4-10.3,9.2-22.9,21.3-26.9c11.8-3.8,24.2,3.2,34,10.4c2.6,1.9,5.1,3.8,7.5,5.9
		c4.9,4.2,9.3,8.9,12.4,14.4c5.2,7.3,19.6,31.5,34.3,57.9c18.1,32.5,36.5,68.7,37.3,78.7c2.2,14.6-2.1,30.4-12.5,41.1
		c-5.9,6.1-13.3,10.2-21,14c-18,8.9-38,15.6-57.6,12.3c-18.8-3.4-31.3,0.9-43.9-13c-5.7-5.7-25-8.2-31.4-13.3
		c-9.8-7.2-22-12.2-34.4-13.9c-17-2.4-23.4-19.2-39.1-25.6c-10.2-4.2-15.9-12.1-22.6-20c-1.2-1.4-2.5-2.9-3.8-4.3
		c-8.4-8.8-20.3-13.1-27.5-23.2c-6.2-8.6-7.5-21.8-0.5-29.1c2.6-2.6,5.9-4.3,9.3-5.4c5.2-1.8,10.7-2.5,16.1-2.2
		c1.9,0.1,3.9,0.4,5.8,0.8c6.7,0.7,23.3-0.5,39.9-2.8c18.6-2.6,37.4-6.6,43.2-10.3c2.2-1.8,4.3-3.5,6.2-5.1
		C623.4,148.1,626.6,139.2,634.8,120.4z"/>
	<path class="st5" d="M642.7,141.7c4.1-7.7,8.7-17.6,19.3-20.6c10.2-2.9,21,2.7,29.6,8.5c2.3,1.5,4.5,3.1,6.6,4.7
		c4.3,3.4,8.3,7.2,11.1,11.6c5.6,6,18.6,25.7,31.6,47.6c16.1,27,32,57.9,32.2,67.6c1.5,12.6-2.4,26-11.4,35.3
		c-5,5.2-11.3,8.8-17.7,12c-15.2,7.7-32.1,13.7-48.7,11.4c-15.8-2.4-26.6,1.3-37.4-9.7c-5.1-4.5-21.1-6.5-26.9-10.6
		c-9.1-5.8-20.1-10.1-31.2-11.9c-15.1-2.5-21.5-16.9-35.1-23.3c-8.9-4.1-14-11.3-20-18.5c-1.1-1.3-2.2-2.6-3.4-3.9
		c-7.5-8-18-12.2-24.5-21.3c-5.4-7.5-6.8-18.8-1.2-25.4c2-2.4,4.6-4,7.4-5.2c4.2-1.8,8.7-2.8,13.2-2.9c1.6,0,3.2,0,4.9,0.2
		c5.9-0.2,20-1.6,34.3-3.8c15.9-2.4,32-5.8,37.6-8.6c2-1.4,3.8-2.7,5.6-3.9C632.7,161.6,635,155.7,642.7,141.7z"/>
	<path class="st5" d="M650.6,163c3.8-5.1,8.3-12.2,17.2-14.3c8.6-2,17.8,2.2,25.1,6.6c2,1.1,3.9,2.3,5.7,3.6
		c3.8,2.6,7.3,5.5,9.9,8.9c6.1,4.7,17.6,19.9,28.9,37.3c14.1,21.5,27.4,47,27.1,56.6c0.9,10.6-2.8,21.6-10.3,29.4
		c-4.1,4.3-9.2,7.3-14.5,10.1c-12.4,6.6-26.2,11.7-39.8,10.5c-12.8-1.4-21.9,1.6-31-6.5c-4.6-3.3-17.3-4.7-22.4-7.8
		c-8.4-4.4-18.2-7.9-28-9.9c-13.1-2.7-19.6-14.6-31.1-20.9c-7.5-4.1-12-10.6-17.4-17c-1-1.2-2-2.3-3-3.5
		c-6.7-7.1-15.7-11.4-21.4-19.4c-4.6-6.4-6-15.7-2-21.6c1.4-2.1,3.4-3.7,5.5-4.9c3.2-1.9,6.6-3.1,10.3-3.7c1.3-0.2,2.6-0.3,3.9-0.3
		c5.1-1.1,16.8-2.8,28.6-4.8c13.2-2.3,26.6-5.1,32.1-7c1.7-1,3.4-1.9,4.9-2.8C642,175.1,643.4,172.3,650.6,163z"/>
	<path class="st5" d="M658.4,184.3c3.5-2.5,7.8-6.8,15.2-8c7.1-1.2,14.6,1.7,20.7,4.7c1.7,0.8,3.3,1.6,4.8,2.5
		c3.2,1.8,6.2,3.8,8.7,6.1c6.5,3.5,16.6,14.1,26.2,27c12.1,15.9,22.9,36.2,22,45.6c0.3,8.6-3.1,17.2-9.2,23.5
		c-3.2,3.4-7.2,5.9-11.2,8.2c-9.6,5.5-20.3,9.8-30.9,9.6c-9.8-0.4-17.1,1.9-24.6-3.2c-4-2-13.5-2.9-17.9-5c-7.7-3-16.3-5.8-24.8-8
		c-11.2-2.8-17.8-12.4-27.2-18.6c-6.1-4.1-10-9.9-14.7-15.5c-0.9-1-1.7-2-2.7-3c-5.8-6.3-13.4-10.5-18.3-17.5
		c-3.7-5.3-5.2-12.7-2.7-17.8c0.9-1.9,2.2-3.3,3.6-4.6c2.2-1.9,4.6-3.4,7.4-4.4c1-0.3,2-0.6,3-0.8c4.3-2,13.6-4,23-5.8
		c10.4-2.1,21.2-4.3,26.6-5.3c1.5-0.6,2.9-1.2,4.2-1.6C651.3,188.7,651.9,188.8,658.4,184.3z"/>
	<path class="st5" d="M666.3,205.6c3.1,0.1,7.3-1.5,13.1-1.8c5.5-0.3,11.3,1.2,16.2,2.8c1.4,0.4,2.7,0.9,4,1.3
		c2.6,1,5.2,2.1,7.4,3.4c6.9,2.2,15.6,8.4,23.5,16.7c10,10.4,18.4,25.3,16.9,34.6c-0.4,6.6-3.4,12.8-8.1,17.7
		c-2.4,2.5-5.1,4.5-8,6.3c-6.8,4.3-14.3,7.8-22,8.7c-6.8,0.5-12.4,2.3-18.1,0c-3.5-0.8-9.7-1.1-13.3-2.2c-7-1.6-14.4-3.7-21.6-6
		c-9.3-2.9-15.9-10.1-23.2-16.2c-4.7-4-8.1-9.2-12.1-14c-0.7-0.9-1.5-1.8-2.3-2.6c-5-5.4-11-9.6-15.3-15.7c-2.9-4.2-4.4-9.7-3.5-14
		c0.3-1.6,0.9-3,1.7-4.3c1.1-2,2.6-3.7,4.5-5.2c0.7-0.5,1.4-0.9,2.1-1.3c3.6-2.9,10.4-5.1,17.4-6.8c7.7-1.9,15.7-3.5,21-3.6
		c1.2-0.2,2.4-0.4,3.5-0.5C660.6,202.2,660.3,205.4,666.3,205.6z"/>
	<path class="st5" d="M700.1,232.5c9.3,0.8,19,2.1,27,7s13.9,14.4,11.8,23.6c-1,4.6-3.8,8.4-7,11.8c-9.8,10.3-24.1,16.3-38.3,15.9
		c-14.2-0.3-28.2-7-37.6-17.9c-3.3-4-6.1-8.4-9.4-12.4c-4.6-5.4-10.1-10.1-14.1-16s-6.1-13.9-2.8-20.2c2.6-4.9,7.7-7.9,12.9-9.7
		c5.9-2.1,12.3-3.1,18.3-1.3c9,2.6,7.9,8.8,13.3,13.8C680.3,232.7,692.2,231.8,700.1,232.5z"/>
</g>
<g class="st3">
	<path class="st4" d="M191.2,140.3c-2.9-9-7.1-18-14.9-23.5c-11.1-7.9-26.3-6.3-39.2-1.8c-27,9.4-49.1,29.7-65.8,52.9
		c-14.5,20.2-25.6,43.1-29.1,67.7c-6.6,45.8,13.5,91.1,36.3,131.5c8,14.3,16.6,28.6,28.2,40.2c9.3,9.3,20.3,16.8,32,22.9
		c32.9,17.6,71.3,25.7,108.3,20.2c15.4-2.3,30.8-7.1,43-16.8c12.2-9.6,21-24.6,20-40.3c-1.3-22.7-21.1-39.4-39.3-53.1
		c-10.4-7.8-20.8-15.7-31-23.6C179.5,234.2,240.8,274.1,191.2,140.3z"/>
	<path class="st4" d="M78.4,180.9c-7.7,8.9-14.2,19.5-18.8,30.7c-4.7,11.2-7.5,23-8.7,35c-5,41.8,13.1,83.3,34.5,119.5
		c3.6,6.1,7.4,12.2,11.5,18c4.5,6.4,9.5,12.4,15.1,17.7c8.7,8.2,18.8,14.7,29.6,20c29.1,15.2,62.9,22.1,95.4,17.1
		c13.6-2.1,27.1-6.4,37.8-14.9c11.2-8.8,19.1-22.5,18.5-36.8c-0.2-5.1-1.4-9.9-3.3-14.4c-5.9-13.9-18.6-25.2-30.8-34.9
		c-9.2-7.4-18.6-14.8-27.9-22C191,261,211.1,267.4,203.9,222c-2.5-14.5-7.5-34.2-18-62.2c-2.6-8-6.5-16-13.4-20.9
		c-9.8-7.1-23.3-6.1-34.7-2.5C113.8,143.7,93.8,160.8,78.4,180.9z"/>
	<path class="st4" d="M85.5,193.9c-8.1,7.8-14.8,18.3-19.1,29.3c-4.3,11.1-6.3,22.6-6.9,34.4c-3.5,37.8,12.7,75.5,32.8,107.5
		c3.4,5.4,6.9,10.8,10.8,15.9c4.3,5.6,8.9,10.8,14.2,15.4c8,7,17.4,12.6,27.2,17.1c25.2,12.7,54.4,18.4,82.4,13.9
		c11.7-1.9,23.3-5.6,32.6-12.9c10.2-8,17.3-20.4,17-33.3c-0.1-4.6-1-9-2.6-13.1c-4.8-12.7-15.7-23.3-26.3-32.5
		c-8.1-7-16.4-13.8-24.8-20.5c-34.7-46.7-19.1-42.1-25.9-81.4c-2.6-12.9-7.1-30.2-16.4-54.3c-2.4-7-5.9-14-11.9-18.4
		c-8.6-6.3-20.2-5.9-30.3-3.2C117.4,163.1,99.5,176.9,85.5,193.9z"/>
	<path class="st4" d="M92.6,206.9c-8.5,6.6-15.4,17-19.3,27.9c-3.9,10.9-5.2,22.3-5.1,33.8c-2,33.7,12.3,67.7,31,95.6
		c3.2,4.7,6.5,9.4,10.2,13.7c4,4.8,8.3,9.2,13.2,13c7.4,5.9,15.9,10.5,24.8,14.1c21.4,10.2,46,14.8,69.5,10.8
		c9.8-1.7,19.6-4.9,27.4-11c9.1-7.1,15.5-18.2,15.6-29.8c0-4.1-0.7-8.1-1.9-11.8c-3.8-11.6-12.8-21.5-21.9-30.1
		c-6.9-6.5-14.2-12.9-21.7-18.9c-29.1-38.6-18-35.9-24.5-68.9c-2.7-11.3-6.6-26.2-14.7-46.5c-2.2-6-5.2-11.9-10.4-15.9
		c-7.3-5.6-17.2-5.7-25.8-4C121,182.5,105.2,193.1,92.6,206.9z"/>
	<path class="st4" d="M99.7,219.9c-9,5.5-16,15.7-19.5,26.4c-3.5,10.8-4,22-3.3,33.2c-0.5,29.7,11.9,59.8,29.3,83.6
		c3,4,6.1,7.9,9.5,11.6c3.7,4,7.8,7.6,12.2,10.7c6.8,4.8,14.5,8.4,22.4,11.2c17.5,7.8,37.5,11.1,56.5,7.6c8-1.5,15.8-4.1,22.2-9.1
		c8.1-6.3,13.7-16.1,14.1-26.3c0.2-3.6-0.3-7.1-1.2-10.5c-2.7-10.5-9.8-19.6-17.4-27.7c-5.7-6.1-12-11.9-18.6-17.4
		c-23.5-30.6-16.9-29.7-23.1-56.4c-2.8-9.7-6.2-22.3-13-38.6c-1.9-5-4.6-9.9-8.9-13.3c-6.1-4.8-14.1-5.5-21.3-4.7
		C124.6,201.9,110.9,209.2,99.7,219.9z"/>
	<path class="st4" d="M106.8,232.9c-9.4,4.3-16.6,14.4-19.7,25s-2.8,21.7-1.5,32.5c1,25.7,11.4,52,27.5,71.6
		c2.7,3.3,5.7,6.5,8.9,9.4c3.5,3.2,7.2,6,11.3,8.4c6.2,3.6,13,6.3,20,8.3c13.6,5.3,29.1,7.4,43.6,4.5c6.1-1.2,12.1-3.4,17-7.2
		c7.1-5.5,11.9-13.9,12.7-22.8c0.3-3.1,0.1-6.2-0.5-9.2c-1.7-9.3-6.9-17.8-13-25.3c-4.6-5.6-9.8-11-15.4-15.8
		c-17.9-22.5-15.9-23.4-21.6-43.9c-2.9-8.1-5.8-18.3-11.4-30.8c-1.7-4-4-7.9-7.4-10.8c-4.8-4-11.1-5.3-16.8-5.4
		C128.2,221.2,116.6,225.3,106.8,232.9z"/>
	<path class="st4" d="M113.9,245.9C104,249.1,96.7,259,94,269.5s-1.6,21.4,0.2,31.9c2.6,21.6,11,44.2,25.7,59.7
		c2.5,2.7,5.3,5.1,8.2,7.3c3.2,2.4,6.7,4.4,10.3,6c5.6,2.5,11.6,4.2,17.6,5.3c9.8,2.8,20.6,3.8,30.7,1.4c4.2-1,8.3-2.7,11.8-5.3
		c6.1-4.6,10.1-11.7,11.2-19.3c0.4-2.7,0.5-5.3,0.2-7.9c-0.6-8.2-4-15.9-8.5-22.9c-3.4-5.2-7.6-10.1-12.3-14.3
		c-12.3-14.4-14.8-17.2-20.2-31.4c-3-6.4-5.4-14.3-9.7-22.9c-1.5-2.9-3.4-5.9-5.9-8.2c-3.6-3.3-8-5.1-12.3-6.1
		C131.8,240.6,122.4,241.4,113.9,245.9z"/>
	<path class="st4" d="M120.9,258.9c-10.3,2-17.8,11.9-20.1,22.2c-2.3,10.3-0.4,21.1,2,31.3c4.8,20.6,12.9,42.9,31.6,52.9
		c7.5,4,16.1,5.5,24.6,6.1c8.5,0.5,17.5-0.2,24.3-5.2c6.9-5.1,10.3-13.8,10.7-22.4c0.7-12.3-4.3-24.7-13.3-33.2
		c-6.7-6.3-13.7-10.9-18.8-18.9c-3.1-4.8-5-10.3-8-15C147.3,266.4,133.8,256.4,120.9,258.9z"/>
</g>
<g class="st3">
	<path class="st6" d="M691.5,371c-29.4-8.9-57.2-22-86.2-32.2c-25.4-8.9-53.3-15.8-79.1-8.4c-26,7.4-48.3,33.5-42.5,59.9
		c3.6,16.8,17,29.5,31.3,39.1c14.2,9.5,29.8,17.3,41.9,29.4C595,497,587,567.6,629.3,601c20.7,16.3,48.9,19.5,75.1,17.8
		c20.2-1.3,40.5-5.3,58.5-14.3c18-9.1,33.8-23.7,41.6-42.3c4.7-11.1,6.8-24.1,15.9-32.1c7.4-6.5,17.6-8.2,27-11.1
		c22.7-7.2,42.8-24.3,50.6-46.7c7.8-22.4,1.7-50-16.9-64.8c-23.7-18.9-62.9-19.3-91.9-23.7C755.9,378.5,724,380.8,691.5,371z"/>
	<path class="st6" d="M548.9,348.1c7.9-2.4,16-3.4,24.2-3.1c10,0.3,20,2.4,29.9,5.2c6,1.7,11.9,3.6,17.7,5.6
		c26.5,9,51.5,19.1,78.1,25.7c29.2,7.4,58,4.9,88.2,9.2c11.7,1.7,25.2,2.8,38.4,5c16.5,2.8,32.8,7.3,44.5,17.1
		c16.8,14.1,21.3,39.6,13.4,60c-7.3,19.9-25.2,35.1-45.5,41.8c-8.4,2.6-17.5,4.3-24.1,10c-8.2,7-10.4,18.4-14.9,28.1
		c-7.4,16.3-21.7,29.1-37.8,37.1c-6,3-12.2,5.3-18.6,7.2c-10.9,3.2-22.4,5-33.7,5.8c-23.5,1.8-48.5-0.6-67.3-14.2
		c-25.7-18.3-32.9-50.6-44.7-81c-6.1-15.6-13.2-30.7-24.6-42.7c-10.6-11.2-24.1-18.8-36.1-27.8c-12-8.9-23.3-20.5-25.9-35.4
		C505.7,378.2,525.7,355,548.9,348.1z"/>
	<path class="st6" d="M571.7,365.8c7-2.3,14.3-3.3,21.7-3.1c9,0.3,17.9,2.4,26.7,5c5.4,1.6,10.7,3.3,15.9,5
		c24,7.8,46.3,14.9,69.9,19.2c25.8,5,51.7,2.2,78.7,5.8c10.6,1.4,22.6,2.4,34.4,4.5c14.8,2.6,29.2,7,39.5,15.9
		c15,13.4,17.8,36.9,9.9,55.3c-6.8,17.4-22.6,30.6-40.4,36.8c-7.3,2.4-15.3,4-21.2,9c-7.3,6.1-9.7,15.8-13.9,24.1
		c-7,13.9-19.7,24.9-34.1,31.9c-5.3,2.6-10.8,4.7-16.5,6.3c-9.7,2.9-19.7,4.5-29.7,5.4c-20.7,1.9-42.7,0.3-59.4-10.7
		c-23.5-14.6-31.7-40.8-43.5-67.1c-6-13.5-12.7-27-22.6-38c-9.2-10.3-20.5-17.7-30.3-26.2c-9.8-8.2-18.9-18.6-20.6-31.8
		C533.6,392.5,551.2,372.3,571.7,365.8z"/>
	<path class="st6" d="M594.5,383.6c6.2-2.2,12.6-3.3,19.1-3.1c8,0.3,15.9,2.5,23.6,4.9c4.8,1.5,9.6,3,14.1,4.4
		c21.6,6.6,41,10.7,61.8,12.6c22.5,2.6,45.3-0.4,69.2,2.4c9.4,1.1,20,2,30.4,4c13,2.5,25.7,6.6,34.5,14.7
		c13.3,12.7,14.4,34.1,6.4,50.6c-6.4,14.8-20,26.2-35.3,31.8c-6.3,2.2-13.1,3.7-18.4,8c-6.4,5.2-8.9,13.2-12.9,20.1
		c-6.6,11.5-17.8,20.7-30.3,26.7c-4.6,2.2-9.4,4-14.3,5.5c-8.4,2.5-17.1,4.1-25.7,5c-17.9,2-36.8,1.2-51.5-7.2
		c-21.2-10.8-30.6-31-42.3-53.2c-6-11.4-12.2-23.3-20.5-33.3c-7.8-9.4-16.9-16.6-24.5-24.6c-7.6-7.5-14.4-16.8-15.3-28.1
		C561.4,406.8,576.8,389.6,594.5,383.6z"/>
	<path class="st6" d="M617.2,401.4c5.4-2,10.9-3.3,16.6-3.1c7,0.2,13.8,2.5,20.5,4.7c4.3,1.4,8.4,2.7,12.4,3.9
		c19.1,5.4,35.7,6.5,53.6,6.1c19.1,0.2,39-3.1,59.6-1c8.3,0.8,17.4,1.7,26.4,3.5c11.2,2.3,22.1,6.2,29.6,13.6
		c11.5,12,10.9,31.4,2.9,45.9c-5.9,12.3-17.3,21.8-30.2,26.8c-5.3,2-11,3.5-15.5,6.9c-5.5,4.2-8.1,10.6-11.8,16.1
		c-6.2,9.2-15.9,16.5-26.5,21.4c-3.9,1.8-8,3.3-12.1,4.6c-7.1,2.2-14.4,3.6-21.7,4.6c-15.1,2-30.9,2-43.6-3.7
		c-19-7.1-29.4-21.2-41.1-39.3c-6-9.3-11.7-19.6-18.5-28.7c-6.4-8.5-13.3-15.5-18.6-23c-5.5-6.9-10-15-9.9-24.5
		C589.3,421.1,602.3,406.8,617.2,401.4z"/>
	<path class="st6" d="M640,419.1c4.5-1.9,9.2-3.3,14.1-3.1c6,0.2,11.7,2.5,17.4,4.6c3.7,1.3,7.2,2.4,10.6,3.3
		c16.6,4.2,30.4,2.3,45.5-0.5c15.7-2.2,32.6-5.7,50.1-4.4c7.1,0.5,14.8,1.3,22.4,3c9.4,2.2,18.6,5.8,24.6,12.4
		c9.7,11.3,7.5,28.6-0.5,41.1c-5.4,9.7-14.7,17.4-25.1,21.8c-4.3,1.8-8.8,3.2-12.6,5.9c-4.6,3.3-7.3,8-10.8,12.1
		c-5.8,6.8-13.9,12.3-22.7,16.2c-3.3,1.4-6.6,2.7-10,3.7c-5.8,1.8-11.8,3.1-17.7,4.2c-12.3,2.1-25,2.9-35.7-0.2
		c-16.7-3.4-28.3-11.4-39.9-25.4c-6-7.2-11.2-15.9-16.5-24c-4.9-7.6-9.7-14.4-12.8-21.4c-3.3-6.2-5.6-13.1-4.6-20.9
		C617.1,435.4,627.8,424.1,640,419.1z"/>
	<path class="st6" d="M662.8,436.9c3.7-1.8,7.5-3.3,11.6-3.1c5,0.2,9.6,2.5,14.3,4.4c3.1,1.2,6,2.1,8.8,2.8
		c14.1,3.1,25.2-1.9,37.3-7c12.4-4.6,26.3-8.4,40.6-7.8c5.9,0.2,12.2,0.9,18.4,2.5c7.6,2,15,5.4,19.6,11.3c7.9,10.6,4,25.9-4,36.4
		c-4.9,7.2-12.1,12.9-20,16.8c-3.3,1.6-6.7,2.9-9.8,4.9c-3.7,2.4-6.6,5.4-9.8,8.1c-5.4,4.5-12,8.2-19,11c-2.6,1-5.2,2-7.8,2.8
		c-4.5,1.5-9.1,2.7-13.7,3.8c-9.5,2.2-19.2,3.7-27.9,3.4c-14.5,0.4-27.1-1.6-38.7-11.5c-5.9-5.1-10.7-12.2-14.5-19.4
		c-3.5-6.7-6.2-13.3-7-19.8c-1.1-5.6-1.2-11.3,0.7-17.2C645,449.7,653.4,441.4,662.8,436.9z"/>
	<path class="st6" d="M787.5,435.2c5.8,1.8,11.5,5,14.6,10.1c6.1,9.9,0.6,23.2-7.5,31.7c-13.5,14.2-32.8,21-51.4,27.4
		c-9.9,3.4-19.7,6.8-29.7,10.2c-12.2,4.1-26,8.2-37.5,2.4c-11.4-5.8-16.5-20.5-13.6-33c2.8-12.5,12.2-22.7,23.2-29.4
		c2.8-1.7,5.8-3.3,9.1-3.1c4,0.1,7.5,2.6,11.2,4.3c15.6,7.1,25.1-2.6,36.2-11.4C755,434.5,771.8,430.3,787.5,435.2z"/>
</g>
<g class="st3">
	<path class="st4" d="M740.8,49.9c9,12.7,17.7,26.1,21.3,41.2c1.9,8.1,2.4,16.5,3.7,24.7c2.9,18.4,10.8,36.5,24.6,48.9
		c4.7,4.2,10.1,7.7,15.5,10.9c7.1,4.2,14.6,8,22.6,9.8c24.7,5.6,50.8-8.8,65.3-29.7s19.4-46.8,21.5-72.1c1.5-18.6,1.8-37.5-2.2-55.8
		S900.7-7.9,887-20.6c-5.7-5.3-12.2-9.6-18.9-13.5c-18.1-10.4-59.5-22.8-95.1-23s-65.4,12-60.3,50.7
		C715.5,15.2,728.6,32.6,740.8,49.9z"/>
	<path class="st4" d="M728.8-6.1c1,19.1,11.2,35.2,22.1,51.7c7.9,11.7,15.8,24,19.3,37.7c1.9,7.3,2.6,14.9,4.1,22.3
		c2.9,16.2,10.1,32,22.3,43c4.2,3.7,9,6.8,13.8,9.6c6.3,3.7,12.9,7.1,20,8.7c11.2,2.6,22.6,0.7,33-4.1c9.9-4.6,18.7-12,25.2-20.9
		c13.9-18.3,18.4-42.2,19.9-65.7c1.2-16.7,1.2-33.8-2.5-50.2c-3.8-16.6-11.4-32.3-23.5-43.6c-5-4.7-10.7-8.5-16.6-11.9
		c-16.1-9.3-52.2-20.2-83.4-20.4C751.3-50,725.1-39.5,728.8-6.1z"/>
	<path class="st4" d="M744.9-5.8c-0.8,16.5,6.4,31.4,16,47.2c6.9,10.8,13.8,22,17.4,34.2c1.9,6.6,2.8,13.3,4.4,19.8
		c2.8,13.9,9.3,27.6,20.1,37c3.7,3.2,7.8,5.9,12,8.4c5.5,3.2,11.3,6.2,17.4,7.7c9.7,2.4,19.7,0.9,28.7-3c8.7-3.8,16.4-9.8,22.2-17.3
		c13.3-15.7,17.4-37.6,18.4-59.3c0.9-14.9,0.6-30-2.8-44.6c-3.5-14.9-10.4-28.9-20.9-38.8c-4.3-4-9.2-7.3-14.2-10.3
		c-14-8.3-45-17.6-71.8-17.8C765.1-42.8,742.5-33.9,744.9-5.8z"/>
	<path class="st4" d="M761-5.5c-2.6,14,1.7,27.6,10,42.6c5.8,9.8,11.9,19.9,15.4,30.7c1.9,5.8,3.1,11.7,4.8,17.4
		c2.8,11.7,8.6,23.1,17.8,31.1c3.1,2.7,6.7,5,10.3,7.1c4.7,2.8,9.6,5.3,14.9,6.6c8.2,2.1,16.7,1.1,24.4-1.9
		c7.4-2.9,14.2-7.6,19.3-13.7c12.7-13.1,16.3-33,16.8-52.9c0.5-13,0.1-26.3-3-38.9c-3.3-13.2-9.4-25.5-18.4-34
		c-3.6-3.4-7.7-6.2-11.9-8.7c-12-7.2-37.7-14.9-60.2-15.2C779-35.5,760-28.3,761-5.5z"/>
	<path class="st4" d="M777.1-5.2c-4.4,11.4-3,23.8,3.9,38c4.7,8.9,9.9,17.9,13.5,27.2c1.9,5,3.3,10.1,5.2,15
		c2.8,9.5,7.9,18.6,15.6,25.2c2.6,2.2,5.6,4.1,8.5,5.8c3.9,2.3,8,4.3,12.3,5.5c6.8,1.8,13.8,1.3,20.2-0.7c6.2-2,11.9-5.4,16.4-10.2
		c12-10.4,15.3-28.4,15.2-46.5c0.2-11.2-0.5-22.6-3.3-33.3c-3-11.5-8.3-22.1-15.8-29.2c-2.9-2.7-6.2-5-9.6-7.1
		c-10-6.1-30.4-12.3-48.5-12.6C792.8-28.3,777.4-22.7,777.1-5.2z"/>
	<path class="st4" d="M793.3-4.9c-6.3,8.9-7.7,20-2.1,33.5c3.6,7.9,8,15.8,11.5,23.7c1.9,4.3,3.5,8.5,5.5,12.5
		c2.7,7.2,7.1,14.1,13.3,19.2c2.1,1.7,4.4,3.2,6.8,4.6c3.1,1.8,6.3,3.4,9.7,4.4c5.3,1.6,10.8,1.6,15.9,0.4c5-1.1,9.6-3.2,13.5-6.6
		C878.8,79,881.7,63,881,46.7c-0.1-9.3-1.1-18.8-3.6-27.7c-2.8-9.8-7.3-18.7-13.2-24.4c-2.2-2.1-4.7-3.9-7.2-5.5
		c-7.9-5-23.2-9.7-36.9-10C806.7-21.1,794.8-17.1,793.3-4.9z"/>
	<path class="st4" d="M809.4-4.6c-8.1,6.3-12.5,16.2-8.1,28.9c2.6,7,6.1,13.7,9.5,20.3c1.9,3.5,3.7,6.9,5.9,10.1
		c2.7,5,6.4,9.7,11.1,13.3c1.6,1.2,3.3,2.3,5.1,3.3c2.3,1.3,4.6,2.5,7.1,3.4c3.9,1.3,7.8,1.8,11.7,1.5c3.7-0.2,7.4-1,10.5-3.1
		c10.8-5.2,13.3-19.3,12.1-33.8c-0.4-7.5-1.7-15.1-3.9-22.1c-2.6-8.2-6.3-15.3-10.6-19.6c-1.5-1.5-3.2-2.7-4.9-3.9
		c-5.9-4-15.9-7.1-25.3-7.4C820.5-13.9,812.3-11.5,809.4-4.6z"/>
	<path class="st4" d="M811.3,20c2.3,9.2,7.2,17.7,13.8,24.4c6.6,6.8,15,11.9,24.1,14.4c2.5,0.7,5.1,1.2,7.6,0.5
		c10.2-2.6,12.3-14.7,10.5-27.4s-7.3-26-12.2-31.2c-7.3-7.7-19.8-8.8-29.6-5S808.3,8.1,811.3,20z"/>
</g>
<g class="st3">
	<path class="st4" d="M227.8,24.8c-8,7.9-19,11.9-28.9,17.1S179,55,176.8,66c-1,4.7-0.3,9.9,2.8,13.6c4.4,5.2,12.1,5.8,18.7,7.6
		c16.6,4.6,29.4,20.6,30.3,37.8c0.3,5.7-0.6,11.4,0.1,17c0.7,5.6,3.5,11.5,8.7,13.7c6.1,2.6,13-0.7,19-3.4c13.2-6,28.5-9.8,42.1-4.7
		c11.1,4.2,19.5,13.7,30.7,17.4c11.6,3.8,24.5,0.6,35.4-5c7.3-3.8,14.2-9,18.3-16.1c6.3-11,4.4-25.9-4.3-35.1
		c-6.6-6.9-16.4-10.6-21.3-18.7c-5.4-8.9-3.3-20.5,1.1-29.8c4.4-9.4,11-17.7,14.8-27.4c7-17.9,3-39.8-10.3-53.7
		s-35.4-18.8-53.1-11.3c-9.3,3.9-17.2,10.8-26.6,14.4c-11.5,4.4-20.4-2.2-31.5-0.3C235.3-15.2,238.7,14,227.8,24.8z"/>
	<path class="st4" d="M283.1-11.2c8.5-3.4,15.7-9.6,24.2-13.1c11.3-4.7,24.6-4,35.7,1.1c4.8,2.2,9.1,5.2,12.7,9
		c5.6,6,9,13.6,10.5,21.6c1.7,9.3,0.8,19.1-2.8,28c-3.6,9-9.5,16.7-13.2,25.5c-3.7,8.4-5.4,18.7-0.6,26.7c4.3,7.3,12.9,10.8,18.7,17
		c0.3,0.3,0.6,0.7,0.9,1c6.9,8.4,8.3,20.9,3.1,30.4c-3.5,6.4-9.5,11.2-16,14.7c-9.5,5-20.8,8-31,4.8c-9.9-3.1-17.3-11.2-27.1-14.8
		c-12-4.4-25.5-1.3-37.1,3.7c-5.9,1.8-12.2,3.9-17.8,0.8c-0.3-0.1-0.5-0.3-0.8-0.5c-1.3-0.8-2.4-1.9-3.5-3c-2.5-2.6-4.3-5.3-5-8.8
		c-0.7-4.9,0.1-10-0.2-15.1c-0.7-15.2-11.6-29.5-25.7-34c-5.6-1.7-12.2-2.5-15.9-7.1c-2.6-3.3-3.2-7.9-2.3-12.1
		c2-9.8,10.6-16.9,19.2-21.7c8.6-4.8,18.2-8.5,25.1-15.6c9.6-9.8,6.9-35.3,21.2-38.1C265.2-12.6,273-7.2,283.1-11.2z"/>
	<path class="st4" d="M283.1-4.7c7.5-3.3,14.2-8.8,21.8-11.8c10.3-4.2,22.2-3.6,32.3,0.9c4.3,1.9,8.3,4.6,11.5,8
		c5.1,5.5,7.8,12.7,8.6,20c1,8.4-0.2,17.3-3.6,25.4C350.3,46,345,53.2,342,61.4c-3.1,7.4-4.3,16.5-0.2,23.6
		c3.8,6.5,11.1,9.8,16.1,15.3c0.3,0.3,0.5,0.6,0.8,0.9c5.9,7.4,7.3,18.5,2.9,26.9c-3,5.7-8,10-13.6,13.3c-8.1,4.5-17.8,7.1-26.7,4.6
		c-8.5-2.5-15.1-9.2-23.6-12.2c-10.4-3.7-22-1.2-32,2.7c-5.8,1-11.6,1.7-16.7-1.8c-0.2-0.2-0.5-0.3-0.7-0.5
		c-1.2-0.9-2.2-2.1-3.3-3.1c-2.6-2.4-4.8-3.9-5.9-7.3c-0.7-4.3-0.1-8.7-0.3-13.1c-0.6-13.2-9.5-25.7-21.2-30.2
		c-4.6-1.7-10-2.5-13.1-6.7c-2.1-2.9-2.6-6.9-1.8-10.6c1.8-8.5,9.1-14.8,16.4-19.2c7.3-4.4,15.4-7.9,21.4-14.2
		c8.2-8.7,6.3-30.5,18.6-33.4C267.6-5.4,274.4-1.2,283.1-4.7z"/>
	<path class="st4" d="M283,1.8c6.6-3.1,12.6-7.9,19.5-10.6c9.2-3.6,19.8-3.2,28.8,0.7c3.9,1.7,7.4,4,10.3,7.1
		c4.6,5.1,6.5,11.8,6.8,18.4c0.4,7.6-1.2,15.6-4.4,22.9c-3.2,7.5-7.8,14.2-10.1,21.7c-2.4,6.5-3.2,14.3,0.3,20.4
		c3.2,5.6,9.3,8.7,13.5,13.7c0.2,0.3,0.4,0.5,0.7,0.8c5,6.5,6.2,16.1,2.7,23.4c-2.4,5-6.6,8.9-11.3,11.9c-6.8,3.9-14.9,6.3-22.3,4.4
		c-7.2-1.8-12.8-7.2-20-9.7c-8.8-3-18.6-1.2-27,1.7c-5.6,0.1-10.9-0.4-15.5-4.3c-0.2-0.2-0.4-0.4-0.7-0.6c-1.1-1-2-2.2-3.2-3.2
		c-2.7-2.2-5.4-2.5-6.7-5.7c-0.7-3.6-0.2-7.4-0.4-11.2c-0.4-11.2-7.5-22-16.6-26.3c-3.6-1.6-7.9-2.6-10.3-6.2
		c-1.7-2.5-2-5.9-1.3-9.1c1.5-7.3,7.5-12.8,13.5-16.8S242,38,246.9,32.5c6.9-7.7,5.7-25.8,15.9-28.6C270,1.9,275.7,4.9,283,1.8z"/>
	<path class="st4" d="M282.9,8.2c5.7-3,11-7,17.1-9.3c8.1-3.1,17.3-2.8,25.3,0.5c3.4,1.4,6.6,3.3,9.1,6.1c4.1,4.6,5.2,10.9,5,16.8
		c-0.3,6.8-2.2,13.8-5.2,20.3c-3,6.7-6.9,12.9-8.6,19.8c-1.8,5.6-2.2,12,0.8,17.3c2.7,4.8,7.5,7.7,10.9,12c0.2,0.2,0.4,0.5,0.5,0.7
		c4,5.6,5.2,13.6,2.5,19.9c-1.8,4.3-5.1,7.8-9,10.4c-5.4,3.4-11.9,5.4-17.9,4.2c-5.8-1.2-10.6-5.2-16.5-7.1
		c-7.2-2.3-15.1-1.1-21.9,0.7c-5.5-0.8-10.3-2.6-14.3-6.9c-0.2-0.2-0.4-0.4-0.6-0.6c-0.9-1.1-1.8-2.4-3-3.2
		c-2.8-2.1-5.9-1.1-7.5-4.2c-0.8-2.9-0.4-6.2-0.4-9.3c-0.2-9.2-5.4-18.3-12-22.5c-2.7-1.6-5.8-2.7-7.5-5.7c-1.2-2.2-1.3-5-0.8-7.6
		c1.3-6.1,6-10.8,10.7-14.3c4.7-3.6,9.9-6.6,13.9-11.2c5.6-6.7,5.1-21.1,13.3-23.9C272.4,9.1,277.1,10.9,282.9,8.2z"/>
	<path class="st4" d="M282.8,14.7c4.7-2.8,9.4-6.1,14.7-8c7-2.5,14.9-2.4,21.9,0.3c3,1.1,5.8,2.7,7.9,5.1c3.6,4.2,3.9,10,3.2,15.2
		c-0.9,6-3.2,12-6,17.8c-2.8,6-6,11.6-7,17.9c-1.1,4.6-1.1,9.8,1.2,14.2c2.1,4,5.7,6.7,8.3,10.3c0.1,0.2,0.3,0.4,0.4,0.6
		c3.1,4.7,4.2,11.2,2.4,16.4c-1.2,3.6-3.6,6.6-6.7,9c-4,2.8-8.9,4.6-13.6,4c-4.5-0.6-8.3-3.2-12.9-4.5c-5.6-1.6-11.7-1.1-16.9-0.3
		c-5.4-1.6-9.6-4.7-13.2-9.5c-0.2-0.2-0.3-0.5-0.5-0.7c-0.8-1.1-1.6-2.5-2.9-3.3c-3-1.9-6.5,0.2-8.3-2.7c-0.8-2.2-0.5-4.9-0.5-7.4
		c0-7.3-3.3-14.5-7.5-18.7c-1.7-1.5-3.7-2.7-4.7-5.3c-0.7-1.8-0.7-4-0.3-6c1.1-4.8,4.4-8.8,7.8-11.9c3.4-3.2,7.2-5.9,10.1-9.8
		c4.2-5.6,4.5-16.4,10.6-19.2C274.8,16.4,278.4,17,282.8,14.7z"/>
	<path class="st4" d="M282.8,21.2c3.8-2.7,7.9-5.3,12.3-6.7c5.9-2,12.5-2,18.4,0.1c2.5,0.9,4.9,2.1,6.7,4.2
		c3.1,3.7,2.7,9.1,1.3,13.6c-1.6,5.1-4.2,10.2-6.7,15.3c-2.7,5.2-5.2,10.3-5.4,16c-0.5,3.7,0,7.6,1.7,11.1c1.6,3.2,4,5.7,5.7,8.6
		c0.1,0.2,0.2,0.3,0.3,0.5c2.2,3.8,3.1,8.7,2.2,12.9c-0.7,2.9-2.1,5.5-4.3,7.6c-2.6,2.3-5.9,3.7-9.2,3.8c-3.2,0-6.1-1.2-9.4-1.9
		c-4-0.9-8.3-1.1-11.9-1.3c-5.3-2.5-9-6.9-12-12.1c-0.1-0.3-0.3-0.5-0.4-0.8c-0.7-1.2-1.4-2.7-2.7-3.3c-3.1-1.7-7,1.6-9.2-1.1
		c-0.8-1.6-0.7-3.6-0.6-5.4c0.1-5.3-1.2-10.8-2.9-14.9c-0.7-1.5-1.5-2.8-1.9-4.8c-0.2-1.4-0.1-3,0.3-4.5c0.9-3.6,2.9-6.7,5-9.5
		c2.1-2.7,4.4-5.3,6.4-8.3c2.9-4.6,3.9-11.6,8-14.5C277.2,23.6,279.7,23.1,282.8,21.2z"/>
	<path class="st4" d="M282.7,27.7c6.7-5.9,16.4-8.1,24.9-5.6c2.1,0.6,4.1,1.5,5.5,3.2c2.6,3.3,1.4,8.2-0.5,12
		c-4.5,8.8-12.2,16.9-11.4,26.8c0.4,5.4,3.4,10.3,5.5,15.3s3.2,11.2,0,15.6c-3.8,5.3-12.1,5.4-17.5,1.9s-8.6-9.6-11.2-15.5
		c-0.6-1.3-1.2-2.8-2.6-3.4c-3.2-1.5-7.6,3-10,0.4c-0.8-0.9-0.8-2.3-0.7-3.5C266,60.8,271.9,37.3,282.7,27.7z"/>
</g>
<g class="st3">
	<path class="st4" d="M369.8,469.3c27.6-27.7,68.7-43.5,106.9-35c27,6,50.5,23.2,68.6,44.2c11.5,13.3,21.3,28.9,23.7,46.4
		c1,7.3,0.7,14.8-1.8,21.8c-4.3,12.1-14.8,21.3-26.4,26.9c-11.6,5.6-24.4,8-37.1,10.4c-12.4,2.3-24.7,4.7-37.1,7
		c-13.7,2.6-27.4,5.2-41.3,5.5c-12.1,0.3-24.1-1.2-36.1-2.9c-24.8-3.6-70.7-1.8-64.4-37.4C330.3,524.4,347.2,492.1,369.8,469.3z"/>
	<path class="st4" d="M532.2,482.5c10.6,11.7,19.5,25.9,21.5,41.7c0.8,6.6,0.5,13.3-1.8,19.6c-3.9,10.9-13.4,19.2-23.8,24.3
		c-10.1,4.9-21.2,7-32.3,9.1c-10.8,2-21.5,4.1-32.3,6.1c-11.9,2.3-23.9,4.5-36,4.8c-10.5,0.3-21-1-31.4-2.5c-11-1.6-26.6-2-38.7-6
		c-11.8-3.9-20.2-11.2-17.6-26.4c1.6-10.6,4.8-21.5,9.2-31.8c7.1-16.6,17.3-32.2,29.5-44.6c5.2-5.3,11-10,17.1-14.2
		c22.4-15.1,49.8-22.9,76.1-17.6C495.2,449.9,515.9,464.5,532.2,482.5z"/>
	<path class="st4" d="M519.1,486.5c9.8,10,17.7,22.9,19.3,37.1c0.7,5.9,0.3,11.9-1.8,17.4c-3.6,9.6-11.9,17.1-21.2,21.6
		c-8.6,4.2-18.1,6-27.4,7.8c-9.2,1.8-18.3,3.6-27.5,5.3c-10.2,1.9-20.3,3.8-30.6,4c-9,0.2-17.9-0.9-26.8-2.1
		c-9.4-1.3-22.6-1.7-32.9-5.1c-10-3.3-17.2-9.5-15.3-22.2c1.1-9.1,3.7-18.4,7.4-27.4c5.9-14.4,14.6-27.8,25-38.6
		c4.4-4.6,9.4-8.7,14.7-12.3c19.2-13,42.3-20.3,64.9-16.4C486.8,459.5,504.6,471.4,519.1,486.5z"/>
	<path class="st4" d="M506,490.5c8.9,8.4,15.9,19.9,17.1,32.4c0.5,5.2,0,10.4-1.8,15.2c-3.2,8.4-10.5,15-18.6,19
		c-7.1,3.4-14.9,5-22.6,6.6c-7.6,1.5-15.1,3-22.7,4.4c-8.4,1.6-16.8,3.1-25.3,3.3c-7.4,0.2-14.8-0.7-22.1-1.7
		c-7.8-1.1-18.7-1.4-27.2-4.2c-8.3-2.7-14.3-7.7-12.9-18.1c0.6-7.5,2.6-15.4,5.6-22.9c4.7-12.1,11.8-23.4,20.5-32.5
		c3.7-3.9,7.8-7.3,12.2-10.4c16-10.9,34.8-17.6,53.7-15.1C478.3,469.1,493.3,478.4,506,490.5z"/>
	<path class="st4" d="M492.9,494.6c8,6.8,14,17,14.8,27.7c0.3,4.4-0.2,8.9-1.9,13.1c-2.9,7.2-9.1,12.8-16.1,16.3
		c-5.6,2.7-11.7,4-17.8,5.3c-6,1.2-11.9,2.4-17.9,3.5c-6.6,1.2-13.2,2.4-19.9,2.6c-5.8,0.1-11.6-0.5-17.4-1.3
		c-6.2-0.9-14.7-1.2-21.4-3.3c-6.5-2.1-11.4-6-10.6-13.9c0.1-5.9,1.5-12.3,3.8-18.5c3.5-9.8,9.1-19.1,16.1-26.5
		c2.9-3.1,6.2-6,9.8-8.5c12.8-8.8,27.2-15,42.4-13.8C469.9,478.7,482,485.4,492.9,494.6z"/>
	<path class="st4" d="M479.8,498.6c7.1,5.2,12.2,14,12.6,23c0.2,3.7-0.4,7.4-1.9,10.9c-2.5,6-7.7,10.7-13.5,13.7c-4.1,2-8.5,3-13,4
		c-4.3,0.9-8.7,1.8-13.1,2.6c-4.8,0.9-9.7,1.8-14.6,1.9c-4.3,0.1-8.5-0.3-12.8-0.9c-4.6-0.6-10.7-0.9-15.7-2.4
		c-4.8-1.5-8.5-4.2-8.2-9.8c-0.4-4.3,0.4-9.3,1.9-14c2.4-7.5,6.4-14.7,11.6-20.5c2.2-2.4,4.7-4.7,7.3-6.6
		c9.6-6.7,19.7-12.4,31.2-12.6C461.4,488.3,470.7,492.4,479.8,498.6z"/>
	<path class="st4" d="M466.7,502.6c6.3,3.5,10.4,11,10.4,18.4c0,3-0.6,6-1.9,8.7c-2.2,4.8-6.2,8.6-10.9,11c-2.6,1.3-5.4,2.1-8.1,2.7
		c-2.7,0.7-5.5,1.3-8.2,1.8c-3.1,0.6-6.1,1.1-9.3,1.1c-2.7,0.1-5.4-0.2-8.1-0.5c-3-0.4-6.8-0.6-9.9-1.6c-3-0.9-5.5-2.5-5.9-5.6
		c-0.9-2.8-0.7-6.2,0.1-9.6c1.2-5.3,3.7-10.3,7.1-14.4c1.4-1.7,3.1-3.3,4.9-4.7c6.4-4.5,12.1-9.7,20-11.3
		C453,497.9,459.4,499.3,466.7,502.6z"/>
	<path class="st4" d="M433.2,519.4c5.1-3.9,5.7-13.6,20.4-12.8c5.4,1.9,8.6,8,8.2,13.7c-0.5,6.3-4.7,11.9-10.2,14.9
		s-12.2,3.4-18.3,2c-1.3-0.3-2.6-0.7-3.5-1.5c-1.4-1.2-1.8-3.2-1.7-5.1C428.1,526.4,430,522.2,433.2,519.4z"/>
</g>
<g class="st3">
	<path class="st7" d="M-51.6,586.7c18.1,12.1,39.2,18.8,60.2,24c41.8,10.2,85.2,14.3,128.2,12c34.8-1.9,69.3-7.8,104.1-7.3
		c9.3,0.1,19.1,0.6,27.8-2.9c16.9-7,24.4-28.1,20.9-46s-15.5-32.9-28.5-45.7c-32.1-31.6-72.1-53.9-112.8-73.1
		C104.2,427,55,409,7.7,420.4c-37.7,9.2-68.9,38.7-83.2,74.5c-5,12.5-12.2,32.3-11.4,46.2C-85.7,560-65.9,577.3-51.6,586.7z"/>
	<path class="st7" d="M11.9,427.8c36.1-9,73.7,0.9,108.5,15.4c5.8,2.4,11.4,4.9,17,7.5c6.3,2.9,12.6,6,18.9,9.2
		c19.8,10.2,38.8,21.7,56.2,35.2c8.7,6.8,16.9,14,24.6,21.8c11.4,11.6,21.7,25.1,24.6,41.1s-3.8,34.7-18.6,41.2
		c-7.7,3.3-16.3,3.1-24.6,3.3c-30.8,0.4-61.8,6.1-93.1,7.8c-37.9,2-76.3-1.8-113.3-11.1C-6.5,594.7-25,588.5-41,577.8
		c-13.7-9.3-31.4-25.8-31.4-43.7c-0.5-12.2,5.9-29.6,10.5-40.6C-48.9,462-21.4,436.1,11.9,427.8z"/>
	<path class="st7" d="M16.2,435.2c31.7-8.2,64.7-0.2,95.4,12.2c5.1,2.1,10.1,4.2,15,6.5c5.6,2.6,11.1,5.2,16.6,8.1
		c17.4,9,33.7,19.6,48.8,31.7c7.5,6.1,14.6,12.6,21.1,19.6c9.7,10.5,18.4,22.4,20.7,36.5s-3.6,30.3-16.4,36.4
		c-6.7,3.1-14.1,3.3-21.4,3.7c-26.8,1.3-54.2,6.7-82.1,8.4c-32.8,1.8-66.2-1.7-98.4-10.2c-16.1-4.2-32.2-9.7-46-19.1
		c-13-9.2-28.6-24.9-27.5-41.7c-0.2-10.6,5.5-25.5,9.6-35.1C-36.7,464.9-12.7,442.6,16.2,435.2z"/>
	<path class="st7" d="M20.4,442.5c27.2-7.4,55.8-1.4,82.4,8.9c4.4,1.7,8.8,3.5,13,5.4c4.8,2.2,9.6,4.5,14.3,6.9
		c14.9,7.9,28.7,17.5,41.4,28.2c6.3,5.4,12.3,11.2,17.6,17.3c8.1,9.3,15,19.8,16.7,31.8c1.7,12.1-3.4,26-14.2,31.5
		c-5.6,2.9-12,3.4-18.2,4.1c-22.9,2.3-46.7,7.4-71.1,8.9c-27.7,1.6-56.2-1.6-83.4-9.2c-13.6-3.8-27.2-8.7-38.8-16.7
		c-12.3-9-25.8-23.9-23.6-39.7c0.2-9,5-21.4,8.7-29.5C-24.4,467.8-4,449.1,20.4,442.5z"/>
	<path class="st7" d="M24.7,449.9c22.8-6.7,46.9-2.5,69.4,5.7c3.7,1.4,7.4,2.8,11,4.4c4.1,1.8,8.1,3.7,12.1,5.8
		c12.5,6.7,23.7,15.3,34,24.7c5.2,4.8,9.9,9.8,14.2,15.1c6.4,8.1,11.7,17.1,12.8,27.2c1.1,10.2-3.2,21.6-12,26.7
		c-4.6,2.7-9.8,3.6-15,4.6c-18.9,3.2-39.2,8-60.1,9.5C68.5,575,45,572,22.6,565.3C11.4,562,0.4,557.7-9.1,551
		c-11.6-8.9-23-22.9-19.6-37.7c0.5-7.4,4.6-17.3,7.9-24C-12.1,470.7,4.7,455.6,24.7,449.9z"/>
	<path class="st7" d="M28.9,457.2c18.3-5.9,37.9-3.7,56.3,2.4c3,1,6.1,2.1,9,3.4c3.4,1.4,6.6,2.9,9.8,4.7
		c10.1,5.6,18.6,13.2,26.6,21.1c4,4.1,7.6,8.4,10.7,12.8c4.7,7,8.4,14.5,8.8,22.6c0.5,8.3-3,17.3-9.8,21.9c-3.6,2.5-7.7,3.7-11.8,5
		c-14.9,4.1-31.6,8.7-49.1,10c-17.5,1.2-36.1-1.5-53.6-7.3C17.2,551,8.7,547.4,1.4,542c-10.9-8.7-20.2-22-15.7-35.7
		c0.8-5.8,4.1-13.2,7-18.4C0.2,473.6,13.4,462.1,28.9,457.2z"/>
	<path class="st7" d="M33.1,464.6c13.9-5.1,29-4.8,43.3-0.8c2.4,0.7,4.7,1.4,7,2.3c2.6,1,5.1,2.2,7.5,3.6c7.7,4.4,13.6,11,19.1,17.6
		c2.8,3.5,5.2,7,7.2,10.6c3.1,5.8,5,11.9,4.9,18c-0.2,6.4-2.8,12.9-7.6,17.1c-2.6,2.3-5.5,3.9-8.6,5.4c-10.9,5.1-24.1,9.3-38.1,10.6
		c-12.4,1-26-1.4-38.7-6.4c-6.2-2.4-12.2-5.4-17.4-9.5c-10.2-8.6-17.4-21-11.7-33.7c1.2-4.2,3.7-9.2,6.1-12.9
		C12.4,476.6,22,468.6,33.1,464.6z"/>
	<path class="st7" d="M14.7,492.3c5.1-8.9,13.3-16,22.7-20.3s20.1-6,30.3-4.1c3.6,0.7,7.3,1.7,10.3,3.7c5.3,3.3,8.5,8.9,11.7,14.1
		c7.6,12.9,6.1,24.9-0.6,34c-6.8,9.2-18.9,15.5-32.5,16.9c-10.7,1.2-24.6-4.1-34.1-12.5C13.1,515.6,8,504,14.7,492.3z"/>
</g>
</svg>
